<svg width="195" height="60" viewBox="0 0 195 60" fill="none" xmlns="http://www.w3.org/2000/svg">
<path d="M22.646 45C19.7407 45 17.1772 44.7681 14.9556 44.3042C12.7583 43.8403 10.8418 43.1934 9.20605 42.3633C7.59473 41.5088 6.23975 40.5078 5.14111 39.3604C4.06689 38.2129 3.2002 36.9556 2.54102 35.5884C1.88184 34.1968 1.41797 32.7319 1.14941 31.1938C0.880859 29.6558 0.746582 28.0811 0.746582 26.4697C0.746582 24.0771 1.10059 21.8677 1.80859 19.8413C2.54102 17.7905 3.63965 16.0327 5.10449 14.5679C6.59375 13.0786 8.46143 11.9189 10.7075 11.0889C12.978 10.2344 15.6636 9.80713 18.7642 9.80713C19.9849 9.80713 21.3643 10.0146 22.9023 10.4297C24.4648 10.8447 25.9541 11.4673 27.3701 12.2974V10.5029H34.8042V52.2876C34.8042 53.2153 34.5601 54.1187 34.0718 54.9976C33.6079 55.8765 32.8511 56.6455 31.8013 57.3047C30.7515 57.9883 29.3965 58.5254 27.7363 58.916C26.1006 59.3311 24.1108 59.5386 21.7671 59.5386C20.1313 59.5386 18.6909 59.502 17.4458 59.4287C16.2007 59.3555 15.041 59.2334 13.9668 59.0625C12.8926 58.916 11.8306 58.7085 10.7808 58.4399C9.73096 58.1958 8.5835 57.8906 7.33838 57.5244L8.32715 54.5947C9.96289 55.1318 11.5986 55.5103 13.2344 55.73C14.8945 55.9741 16.7378 56.0962 18.7642 56.0962C21.7671 56.0962 23.9521 55.5713 25.3193 54.5215C26.6865 53.4961 27.3701 52.0435 27.3701 50.1636V45H22.646ZM8.18066 26.3965C8.18066 27.2266 8.22949 28.1909 8.32715 29.2896C8.44922 30.3638 8.68115 31.4868 9.02295 32.6587C9.36475 33.8062 9.85303 34.9414 10.4878 36.0645C11.147 37.1631 12.0015 38.1641 13.0513 39.0674C14.1255 39.9463 15.4438 40.6543 17.0063 41.1914C18.5933 41.7285 20.4731 41.9971 22.646 41.9971H27.3701V15.0073C26.1982 14.2993 24.9775 13.7744 23.708 13.4326C22.4385 13.0664 21.0347 12.8833 19.4966 12.8833C17.6899 12.8833 16.0786 13.2617 14.6626 14.0186C13.271 14.751 12.0869 15.7397 11.1104 16.9849C10.1582 18.23 9.42578 19.6704 8.91309 21.3062C8.4248 22.9175 8.18066 24.6143 8.18066 26.3965ZM52.0894 13.2129C53.0659 12.5293 53.9204 11.9678 54.6528 11.5283C55.4097 11.0889 56.0811 10.7471 56.667 10.5029C57.2529 10.2344 57.79 10.0513 58.2783 9.95361C58.791 9.85596 59.2915 9.80713 59.7798 9.80713C61.6841 9.80713 63.1001 10.4663 64.0278 11.7847C64.9556 13.103 65.5049 14.9707 65.6758 17.3877L59.2671 19.292C59.0229 17.5342 58.6934 16.2891 58.2783 15.5566C57.8633 14.8242 57.2163 14.458 56.3374 14.458C55.8247 14.458 55.2144 14.5679 54.5063 14.7876C53.8228 15.0073 53.0171 15.3735 52.0894 15.8862V45H44.6553V10.5029H52.0894V13.2129ZM86.4033 9.80713C88.918 9.80713 91.2739 10.2832 93.4712 11.2354C95.6685 12.1631 97.5728 13.4448 99.1841 15.0806C100.82 16.6919 102.102 18.5962 103.029 20.7935C103.957 22.9663 104.421 25.2856 104.421 27.7515C104.421 30.2417 103.957 32.5854 103.029 34.7827C102.102 36.9556 100.82 38.8599 99.1841 40.4956C97.5728 42.1069 95.6685 43.3887 93.4712 44.3408C91.2739 45.2686 88.918 45.7324 86.4033 45.7324C83.9375 45.7324 81.6182 45.2686 79.4453 44.3408C77.2969 43.3887 75.417 42.1069 73.8057 40.4956C72.1943 38.8599 70.9126 36.9556 69.9604 34.7827C69.0327 32.5854 68.5688 30.2417 68.5688 27.7515C68.5688 25.2856 69.0327 22.9663 69.9604 20.7935C70.9126 18.5962 72.1943 16.6919 73.8057 15.0806C75.417 13.4448 77.2969 12.1631 79.4453 11.2354C81.6182 10.2832 83.9375 9.80713 86.4033 9.80713ZM86.3301 13.1396C84.4258 13.1396 82.8145 13.5059 81.4961 14.2383C80.2021 14.9707 79.1523 15.9961 78.3467 17.3145C77.541 18.6328 76.9551 20.1953 76.5889 22.002C76.2471 23.8086 76.0762 25.7739 76.0762 27.8979C76.0762 29.9976 76.2593 31.9385 76.6255 33.7207C76.9917 35.5029 77.5776 37.0532 78.3833 38.3716C79.189 39.6655 80.2388 40.6787 81.5327 41.4111C82.8511 42.1436 84.4502 42.5098 86.3301 42.5098C88.21 42.5098 89.8091 42.1436 91.1274 41.4111C92.4458 40.6787 93.52 39.6655 94.3501 38.3716C95.2046 37.0532 95.8149 35.5029 96.1812 33.7207C96.5718 31.9385 96.7671 29.9976 96.7671 27.8979C96.7671 25.7739 96.5718 23.8086 96.1812 22.002C95.8149 20.1953 95.2046 18.6328 94.3501 17.3145C93.52 15.9961 92.4458 14.9707 91.1274 14.2383C89.8091 13.5059 88.21 13.1396 86.3301 13.1396ZM127.346 9.80713C129.86 9.80713 132.216 10.2832 134.414 11.2354C136.611 12.1631 138.515 13.4448 140.126 15.0806C141.762 16.6919 143.044 18.5962 143.972 20.7935C144.899 22.9663 145.363 25.2856 145.363 27.7515C145.363 30.2417 144.899 32.5854 143.972 34.7827C143.044 36.9556 141.762 38.8599 140.126 40.4956C138.515 42.1069 136.611 43.3887 134.414 44.3408C132.216 45.2686 129.86 45.7324 127.346 45.7324C124.88 45.7324 122.561 45.2686 120.388 44.3408C118.239 43.3887 116.359 42.1069 114.748 40.4956C113.137 38.8599 111.855 36.9556 110.903 34.7827C109.975 32.5854 109.511 30.2417 109.511 27.7515C109.511 25.2856 109.975 22.9663 110.903 20.7935C111.855 18.5962 113.137 16.6919 114.748 15.0806C116.359 13.4448 118.239 12.1631 120.388 11.2354C122.561 10.2832 124.88 9.80713 127.346 9.80713ZM127.272 13.1396C125.368 13.1396 123.757 13.5059 122.438 14.2383C121.145 14.9707 120.095 15.9961 119.289 17.3145C118.483 18.6328 117.897 20.1953 117.531 22.002C117.189 23.8086 117.019 25.7739 117.019 27.8979C117.019 29.9976 117.202 31.9385 117.568 33.7207C117.934 35.5029 118.52 37.0532 119.326 38.3716C120.131 39.6655 121.181 40.6787 122.475 41.4111C123.793 42.1436 125.393 42.5098 127.272 42.5098C129.152 42.5098 130.751 42.1436 132.07 41.4111C133.388 40.6787 134.462 39.6655 135.292 38.3716C136.147 37.0532 136.757 35.5029 137.124 33.7207C137.514 31.9385 137.709 29.9976 137.709 27.8979C137.709 25.7739 137.514 23.8086 137.124 22.002C136.757 20.1953 136.147 18.6328 135.292 17.3145C134.462 15.9961 133.388 14.9707 132.07 14.2383C130.751 13.5059 129.152 13.1396 127.272 13.1396ZM167.556 37.0532L177.7 10.5029H181.215L169.497 41.2646L171.218 45H163.491L147.597 10.5029H155.397L167.556 37.0532ZM194.179 45H186.745V10.5029H194.179V45ZM194.179 4.7168H186.745V0.358887H194.179V4.7168Z" fill="black"/>
</svg>
